<svg width="30" height="30" viewBox="0 0 30 30" fill="none" xmlns="http://www.w3.org/2000/svg">
<g clip-path="url(#clip0_6364_1056)">
<path d="M0 29.5567H30M24.375 7.09326V13.3092M26.2891 7.15186V11.4915M10.6055 0.442871H14.5386V10.2024H0.476074V0.442871H9.70705M28.4766 7.09326H20.2734L21.4453 1.03619H27.3047L28.4766 7.09326Z" stroke="#4A4C56" stroke-width="0.878906" stroke-miterlimit="10"/>
<path d="M12.6055 2.37695V8.26926H2.41016V2.37695L12.6055 2.37695Z" stroke="#4A4C56" stroke-width="0.878906" stroke-miterlimit="10"/>
<path d="M14.9978 17.0547V14.5663C14.9978 13.5954 14.2108 12.8085 13.24 12.8085H7.03139C5.8185 12.8085 4.80594 13.7338 4.69707 14.9419L4.41799 18.0385C4.54722 18.2508 4.62978 18.4881 4.66016 18.7347L5.12422 22.4764H24.8708L25.3391 18.7327C25.3695 18.4876 25.4515 18.2517 25.5796 18.0405L25.2979 14.94C25.1882 13.7328 24.176 12.8084 22.9637 12.8084H16.7597C15.7883 12.8084 15.0011 13.5963 15.0019 14.5676M14.9978 21.3082V17.93M2.41016 5.78518C2.41016 5.78518 4.00438 3.95658 6.42629 4.46072C8.8482 4.96486 10.6719 6.83377 12.6055 5.079V2.37695H2.41016V5.78518Z" stroke="#4A4C56" stroke-width="0.878906" stroke-miterlimit="10"/>
<path d="M9.73476 25.992H2.01813L1.17175 19.1674C1.05228 18.2039 1.73642 17.3261 2.69987 17.2066C3.66333 17.0871 4.54118 17.7713 4.66065 18.7347L5.12472 22.4764H24.8713L25.3396 18.7327C25.46 17.7694 26.3386 17.0862 27.3019 17.2066C28.2653 17.3271 28.9485 18.2057 28.828 19.169L27.9747 25.9921H10.6454" stroke="#4A4C56" stroke-width="0.878906" stroke-miterlimit="10"/>
<path d="M14.9971 22.476V21.3078C14.9971 20.6605 14.4725 20.1359 13.8253 20.1359H6.15961C5.4552 20.1359 4.90992 20.7529 4.99664 21.452L5.12361 22.476M5.12361 22.476H24.8702L24.9158 22.1119C25.047 21.0627 24.2289 20.1359 23.1715 20.1359H16.1753C15.5281 20.1359 15.0035 20.6606 15.0035 21.3078V22.4761M5.12361 22.476L5.12367 25.9879M3.70313 25.9879L2.53125 29.5036H4.69922L5.28516 27.7457H24.7145L25.3004 29.5036H27.4684L26.2965 25.9879M7.7635 16.3511H8.6424M10.869 16.3511H11.7479M18.3104 16.3511H19.1893M21.4158 16.3511H22.2947M24.8703 22.476V25.9879" stroke="#4A4C56" stroke-width="0.878906" stroke-miterlimit="10"/>
</g>
<defs>
<clipPath id="clip0_6364_1056">
<rect width="30" height="30" fill="white"/>
</clipPath>
</defs>
</svg>
