<svg width="30" height="31" viewBox="0 0 30 31" fill="none" xmlns="http://www.w3.org/2000/svg">
<path d="M17.0543 14.7272C17.0964 14.8093 17.1604 14.8783 17.2391 14.9265C17.3179 14.9747 17.4085 15.0001 17.5008 15.0001C17.5796 15.0001 17.6572 14.9814 17.7273 14.9457C17.7568 14.9307 20.6998 13.4356 22.1513 12.9772C22.4143 12.8937 22.5603 12.6126 22.4768 12.3497C22.4571 12.287 22.4252 12.2288 22.383 12.1785C22.3408 12.1282 22.289 12.0866 22.2307 12.0563C22.1725 12.026 22.1088 12.0074 22.0433 12.0018C21.9779 11.9961 21.9119 12.0034 21.8493 12.0232C20.3203 12.5067 17.3973 13.9917 17.2733 14.0547C17.0273 14.1797 16.9293 14.4807 17.0543 14.7272ZM17.5008 9.00025C17.5796 9.00021 17.6572 8.98154 17.7273 8.94576C17.7568 8.93076 20.6998 7.43575 22.1513 6.97726C22.4143 6.89376 22.5603 6.61275 22.4768 6.34978C22.4571 6.28711 22.4252 6.22894 22.383 6.1786C22.3408 6.12826 22.289 6.08674 22.2307 6.05641C22.1725 6.02609 22.1088 6.00755 22.0433 6.00187C21.9779 5.99619 21.9119 6.00347 21.8493 6.0233C20.3203 6.50681 17.3973 7.9918 17.2733 8.05479C17.0274 8.17977 16.9293 8.48076 17.0543 8.72726C17.0964 8.80945 17.1604 8.87842 17.2391 8.92659C17.3179 8.97475 17.4085 9.00024 17.5008 9.00025Z" fill="#4A4C56"/>
<path d="M29.4998 8.00025C29.4341 8.00022 29.3691 8.01314 29.3084 8.03826C29.2478 8.06338 29.1926 8.1002 29.1462 8.14663C29.0998 8.19307 29.0629 8.24819 29.0378 8.30886C29.0127 8.36953 28.9998 8.43456 28.9998 8.50022V28.0001C28.9998 28.8271 28.3268 29.5001 27.4998 29.5001H15.4999V28.3496C16.2289 28.0946 18.1279 27.5001 19.9999 27.5001C24.3554 27.5001 27.3129 28.4646 27.3423 28.4746C27.4175 28.4993 27.4974 28.5059 27.5756 28.4939C27.6538 28.4819 27.728 28.4516 27.7923 28.4055C27.8566 28.3592 27.9089 28.2983 27.945 28.2278C27.981 28.1573 27.9998 28.0792 27.9998 28V6.00028C27.9999 5.8865 27.9612 5.77608 27.89 5.68733C27.8188 5.59857 27.7194 5.5368 27.6083 5.51226C27.6083 5.51226 27.2163 5.42478 26.5463 5.30173C26.2758 5.25175 26.0143 5.43175 25.9643 5.70274C25.9143 5.97473 26.0938 6.23524 26.3653 6.28522C26.5771 6.32407 26.7886 6.36458 26.9998 6.40674V27.3356C25.8668 27.0386 23.3508 26.5001 19.9998 26.5001C17.8213 26.5001 15.6814 27.2156 15.0193 27.4581C14.4308 27.1981 12.6519 26.5001 10.4999 26.5001C7.05586 26.5001 4.21889 27.0681 2.99992 27.3566V6.38723C3.99841 6.14173 6.94741 5.50025 10.4999 5.50025C12.3229 5.50025 13.8863 6.06772 14.4998 6.32424V26.0001C14.4999 26.0886 14.5234 26.1755 14.568 26.2519C14.6126 26.3284 14.6767 26.3916 14.7537 26.4352C14.8307 26.4787 14.9179 26.5011 15.0064 26.4999C15.0949 26.4988 15.1815 26.4742 15.2573 26.4286C15.3069 26.3991 20.2608 23.4401 24.6578 21.9746C24.7574 21.9415 24.844 21.8778 24.9054 21.7926C24.9668 21.7074 24.9998 21.6051 24.9998 21.5001V1.00028C24.9997 0.919459 24.9801 0.839845 24.9426 0.768267C24.9051 0.696689 24.8507 0.635281 24.7843 0.589308C24.7179 0.543185 24.6413 0.513858 24.5611 0.503847C24.4809 0.493835 24.3995 0.503437 24.3238 0.531828C20.3233 2.03228 16.2754 4.55127 16.2349 4.57629C16.0008 4.72277 15.9293 5.03127 16.0758 5.26529C16.2218 5.49931 16.5303 5.57079 16.7648 5.42431C16.8018 5.40081 20.3233 3.20983 23.9998 1.73135V21.1422C20.5868 22.3282 17.0233 24.2647 15.4998 25.1316V6.00028C15.4998 5.90738 15.4739 5.81632 15.4251 5.73728C15.3762 5.65825 15.3064 5.59438 15.2233 5.5528C15.1373 5.51032 13.0883 4.50029 10.4999 4.50029C5.98191 4.50029 2.50844 5.4778 2.36242 5.51976C2.25798 5.54957 2.1661 5.6126 2.10069 5.69931C2.03528 5.78601 1.9999 5.89167 1.99991 6.00028V28.0001C2.00005 28.0774 2.01804 28.1537 2.05247 28.2229C2.0869 28.2921 2.13685 28.3524 2.19842 28.3991C2.28524 28.4648 2.39112 28.5002 2.49994 28.5002C2.54594 28.5002 2.59193 28.4937 2.63693 28.4807C2.67144 28.4712 6.12892 27.5002 10.4999 27.5002C12.3279 27.5002 13.8898 28.0692 14.4998 28.3246V29.5001H2.49994C1.67296 29.5001 0.999953 28.8271 0.999953 28.0001V8.50028C0.999953 8.22431 0.775951 8.0003 0.499977 8.0003C0.224002 8.0003 0 8.22431 0 8.50028V28.0001C0 29.3786 1.12148 30.5001 2.5 30.5001H27.4998C28.8783 30.5001 29.9998 29.3787 29.9998 28.0001V8.50028C29.9998 8.43461 29.9869 8.36958 29.9618 8.30891C29.9367 8.24823 29.8998 8.1931 29.8534 8.14667C29.807 8.10023 29.7518 8.0634 29.6912 8.03828C29.6305 8.01315 29.5655 8.00023 29.4998 8.00025Z" fill="#4A4C56"/>
<path d="M17.0545 11.7273C17.0966 11.8095 17.1606 11.8784 17.2393 11.9266C17.3181 11.9748 17.4087 12.0003 17.501 12.0002C17.5797 12.0002 17.6574 11.9815 17.7275 11.9458C17.757 11.9308 20.7 10.4358 22.1515 9.97726C22.4145 9.89376 22.5605 9.61275 22.477 9.34978C22.4573 9.28711 22.4254 9.22894 22.3832 9.1786C22.341 9.12826 22.2892 9.08674 22.2309 9.05641C22.1727 9.02609 22.109 9.00755 22.0435 9.00187C21.9781 8.99619 21.9121 9.00347 21.8495 9.0233C20.3205 9.50681 17.3975 10.9918 17.2735 11.0548C17.0275 11.1798 16.9295 11.4808 17.0545 11.7273ZM17.0545 17.7272C17.0966 17.8094 17.1606 17.8784 17.2393 17.9266C17.3181 17.9747 17.4087 18.0002 17.501 18.0002C17.5797 18.0002 17.6574 17.9815 17.7275 17.9457C17.757 17.9307 20.7 16.4357 22.1515 15.9772C22.4145 15.8937 22.5605 15.6127 22.477 15.3497C22.4573 15.2871 22.4254 15.2289 22.3832 15.1786C22.341 15.1282 22.2892 15.0867 22.2309 15.0564C22.1727 15.026 22.109 15.0075 22.0435 15.0018C21.9781 14.9961 21.9121 15.0034 21.8495 15.0233C20.3205 15.5068 17.3975 16.9918 17.2735 17.0547C17.0275 17.1797 16.9295 17.4808 17.0545 17.7272ZM12.1146 9.77933C9.02712 9.05482 5.51861 9.97784 5.37113 10.0173C5.30694 10.0336 5.24662 10.0625 5.19369 10.1023C5.14075 10.1421 5.09625 10.1921 5.06276 10.2492C5.02928 10.3064 5.00747 10.3696 4.99863 10.4352C4.98978 10.5009 4.99405 10.5676 5.01121 10.6316C5.02836 10.6955 5.05805 10.7555 5.09856 10.8079C5.13906 10.8603 5.18957 10.9041 5.24716 10.9368C5.30474 10.9696 5.36826 10.9905 5.43401 10.9985C5.49976 11.0065 5.56644 11.0013 5.63017 10.9833C5.66369 10.9738 9.04165 10.0853 11.8866 10.7528C12.1541 10.8153 12.4247 10.6488 12.4876 10.3798C12.5506 10.1113 12.3836 9.84232 12.1146 9.77933ZM12.1146 12.7793C9.02712 12.0553 5.51861 12.9778 5.37113 13.0173C5.30694 13.0336 5.24662 13.0625 5.19369 13.1023C5.14075 13.1421 5.09625 13.192 5.06276 13.2492C5.02928 13.3063 5.00747 13.3696 4.99863 13.4352C4.98978 13.5008 4.99405 13.5676 5.01121 13.6315C5.02836 13.6955 5.05805 13.7554 5.09856 13.8079C5.13906 13.8603 5.18957 13.9041 5.24716 13.9368C5.30474 13.9695 5.36826 13.9905 5.43401 13.9985C5.49976 14.0064 5.56644 14.0013 5.63017 13.9833C5.66369 13.9738 9.04165 13.0853 11.8866 13.7528C12.1541 13.8153 12.4247 13.6488 12.4876 13.3798C12.5506 13.1113 12.3836 12.8423 12.1146 12.7793ZM17.0545 20.7272C17.0966 20.8094 17.1606 20.8784 17.2393 20.9265C17.3181 20.9747 17.4087 21.0002 17.501 21.0002C17.5797 21.0001 17.6574 20.9815 17.7275 20.9457C17.757 20.9307 20.7 19.4357 22.1515 18.9772C22.4145 18.8937 22.5605 18.6127 22.477 18.3497C22.4573 18.287 22.4254 18.2289 22.3832 18.1785C22.341 18.1282 22.2892 18.0867 22.2309 18.0563C22.1727 18.026 22.109 18.0075 22.0435 18.0018C21.9781 17.9961 21.9121 18.0034 21.8495 18.0232C20.3205 18.5067 17.3975 19.9917 17.2735 20.0547C17.0275 20.1797 16.9295 20.4808 17.0545 20.7272ZM12.1146 15.7793C9.02712 15.0553 5.51861 15.9773 5.37113 16.0173C5.24305 16.0517 5.13387 16.1355 5.06758 16.2503C5.00129 16.3652 4.98333 16.5017 5.01764 16.6298C5.04611 16.736 5.10881 16.83 5.19603 16.897C5.28325 16.9641 5.39013 17.0006 5.50016 17.0008C5.54316 17.0008 5.58664 16.9948 5.63017 16.9833C5.66369 16.9738 9.04165 16.0853 11.8866 16.7528C12.1541 16.8153 12.4247 16.6487 12.4876 16.3797C12.5506 16.1113 12.3836 15.8423 12.1146 15.7793ZM12.1146 21.7792C9.02712 21.0547 5.51861 21.9777 5.37113 22.0172C5.24305 22.0516 5.13387 22.1354 5.06758 22.2503C5.00129 22.3651 4.98333 22.5016 5.01764 22.6297C5.04611 22.736 5.10881 22.8299 5.19603 22.897C5.28325 22.9641 5.39013 23.0005 5.50016 23.0007C5.54316 23.0007 5.58664 22.9948 5.63017 22.9832C5.66369 22.9737 9.04165 22.0852 11.8866 22.7527C12.1541 22.8147 12.4247 22.6487 12.4876 22.3797C12.5506 22.1112 12.3836 21.8422 12.1146 21.7792ZM12.1146 18.7793C9.02712 18.0548 5.51861 18.9772 5.37113 19.0173C5.24305 19.0516 5.13387 19.1355 5.06758 19.2503C5.00129 19.3652 4.98333 19.5016 5.01764 19.6297C5.04611 19.736 5.10881 19.8299 5.19603 19.897C5.28325 19.9641 5.39013 20.0005 5.50016 20.0008C5.54316 20.0008 5.58664 19.9948 5.63017 19.9832C5.66369 19.9737 9.04165 19.0852 11.8866 19.7527C12.1541 19.8152 12.4247 19.6487 12.4876 19.3797C12.5506 19.1112 12.3836 18.8422 12.1146 18.7793Z" fill="#4A4C56"/>
</svg>
