<svg width="30" height="30" viewBox="0 0 30 30" fill="none" xmlns="http://www.w3.org/2000/svg">
<path d="M18.5296 21.0406H6.82182C6.59731 21.0406 6.41537 20.8586 6.41537 20.6341C6.41537 20.4096 6.59731 20.2277 6.82182 20.2277H18.5296C18.7541 20.2277 18.936 20.4096 18.936 20.6341C18.936 20.8586 18.7521 21.0406 18.5296 21.0406ZM2.67989 13.9741C2.45537 13.9741 2.27344 13.7922 2.27344 13.5677V5.9883C2.27344 5.19282 2.92182 4.54443 3.71731 4.54443H24.2392C25.0347 4.54443 25.6831 5.19282 25.6831 5.9883V10.6141C25.6831 10.8386 25.5012 11.0206 25.2767 11.0206C25.0521 11.0206 24.8702 10.8386 24.8702 10.6141V5.9883C24.8702 5.63992 24.5876 5.35734 24.2392 5.35734H3.71731C3.36892 5.35734 3.08634 5.63992 3.08634 5.9883V13.5677C3.08634 13.7922 2.90441 13.9741 2.67989 13.9741ZM18.5296 17.578H6.82182C6.59731 17.578 6.41537 17.396 6.41537 17.1715C6.41537 16.947 6.59731 16.7651 6.82182 16.7651H18.5296C18.7541 16.7651 18.936 16.947 18.936 17.1715C18.936 17.396 18.7521 17.578 18.5296 17.578Z" fill="#4A4C56"/>
<path d="M13.9759 19.403C14.2528 19.403 14.4772 19.1785 14.4772 18.9017C14.4772 18.6248 14.2528 18.4004 13.9759 18.4004C13.699 18.4004 13.4746 18.6248 13.4746 18.9017C13.4746 19.1785 13.699 19.403 13.9759 19.403Z" fill="#4A4C56"/>
<path d="M12.3127 23.2585C12.0882 23.2585 11.9062 23.0766 11.9062 22.8521V20.634C11.9062 20.4095 12.0882 20.2275 12.3127 20.2275C12.5372 20.2275 12.7192 20.4095 12.7192 20.634V22.8521C12.7192 23.0766 12.5372 23.2585 12.3127 23.2585ZM15.6437 23.2585C15.4192 23.2585 15.2372 23.0766 15.2372 22.8521V20.634C15.2372 20.4095 15.4192 20.2275 15.6437 20.2275C15.8682 20.2275 16.0501 20.4095 16.0501 20.634V22.8521C16.0501 23.0766 15.8682 23.2585 15.6437 23.2585Z" fill="#4A4C56"/>
<path d="M18.9153 25.4534H8.12691C7.90239 25.4534 7.72046 25.2715 7.72046 25.0469V24.7876C7.72046 23.5624 8.71723 22.5656 9.94239 22.5656H18.0134C18.2282 22.5656 18.4411 22.5966 18.6443 22.6566C18.8592 22.7205 18.983 22.9469 18.9192 23.1618C18.8553 23.3766 18.6288 23.5005 18.414 23.4366C18.2843 23.3979 18.1508 23.3786 18.0134 23.3786H9.94239C9.21465 23.3786 8.61465 23.9321 8.5411 24.6405H18.9153C19.1398 24.6405 19.3217 24.8224 19.3217 25.0469C19.3217 25.2715 19.1398 25.4534 18.9153 25.4534ZM6.51271 25.4534H0.907553C0.512714 25.4534 0.193359 25.1321 0.193359 24.7392V13.8753C0.193359 13.4805 0.51465 13.1611 0.907553 13.1611H6.51078C6.90562 13.1611 7.22497 13.4824 7.22497 13.8753V24.7373C7.22691 25.134 6.90562 25.4534 6.51271 25.4534ZM1.00626 24.6405H6.414V13.974H1.00626V24.6405Z" fill="#4A4C56"/>
<path d="M6.82046 15.6482H0.599811C0.375295 15.6482 0.193359 15.4662 0.193359 15.2417C0.193359 15.0172 0.375295 14.8353 0.599811 14.8353H6.82046C7.04497 14.8353 7.22691 15.0172 7.22691 15.2417C7.22691 15.4662 7.04497 15.6482 6.82046 15.6482ZM6.82046 23.7792H0.599811C0.375295 23.7792 0.193359 23.5972 0.193359 23.3727C0.193359 23.1482 0.375295 22.9662 0.599811 22.9662H6.82046C7.04497 22.9662 7.22691 23.1482 7.22691 23.3727C7.22691 23.5972 7.04497 23.7792 6.82046 23.7792ZM29.0127 25.4533H18.9153C18.4779 25.4533 18.1217 25.0972 18.1217 24.6598V11.003C18.1217 10.5656 18.4779 10.2095 18.9153 10.2095H29.0127C29.4501 10.2095 29.8063 10.5656 29.8063 11.003V24.6598C29.8063 25.0972 29.4501 25.4533 29.0127 25.4533ZM18.9347 24.6404H28.9934V11.0204H18.9327V24.6404H18.9347Z" fill="#4A4C56"/>
<path d="M28.0449 23.3031H19.8811C19.6565 23.3031 19.4746 23.1212 19.4746 22.8967V11.969C19.4746 11.7444 19.6565 11.5625 19.8811 11.5625H28.0449C28.2694 11.5625 28.4514 11.7444 28.4514 11.969V22.8967C28.4514 23.1212 28.2694 23.3031 28.0449 23.3031ZM20.2894 22.4902H27.6385V12.3754H20.2875V22.4902H20.2894Z" fill="#4A4C56"/>
<path d="M23.9633 24.3582C24.176 24.3582 24.3484 24.1858 24.3484 23.9731C24.3484 23.7603 24.176 23.5879 23.9633 23.5879C23.7506 23.5879 23.5781 23.7603 23.5781 23.9731C23.5781 24.1858 23.7506 24.3582 23.9633 24.3582Z" fill="#4A4C56"/>
</svg>
