<svg width="30" height="30" viewBox="0 0 30 30" fill="none" xmlns="http://www.w3.org/2000/svg">
<path d="M26.25 7.95761V6.0938C26.25 5.96948 26.2006 5.85025 26.1127 5.76235C26.0248 5.67444 25.9056 5.62505 25.7813 5.62505H24.0482L22.1508 4.36013C22.4176 4.1779 22.6328 3.92981 22.7754 3.63994C22.9181 3.35007 22.9834 3.02825 22.965 2.7057C22.9467 2.38315 22.8453 2.07082 22.6707 1.799C22.4961 1.52718 22.2542 1.3051 21.9684 1.1543C21.6827 1.0035 21.3629 0.929092 21.04 0.938302C20.717 0.947513 20.4019 1.04003 20.1253 1.20687C19.8486 1.37371 19.6198 1.60922 19.461 1.89055C19.3021 2.17188 19.2187 2.48948 19.2188 2.81255C19.2188 2.93687 19.2681 3.0561 19.356 3.14401C19.444 3.23192 19.5632 3.2813 19.6875 3.2813C19.8118 3.2813 19.931 3.23192 20.019 3.14401C20.1069 3.0561 20.1563 2.93687 20.1563 2.81255C20.1563 2.62713 20.2112 2.44588 20.3142 2.29171C20.4173 2.13753 20.5637 2.01737 20.735 1.94642C20.9063 1.87546 21.0948 1.85689 21.2766 1.89307C21.4585 1.92924 21.6256 2.01853 21.7567 2.14964C21.8878 2.28075 21.9771 2.4478 22.0132 2.62966C22.0494 2.81151 22.0308 3.00001 21.9599 3.17132C21.8889 3.34262 21.7688 3.48904 21.6146 3.59206C21.4604 3.69507 21.2792 3.75005 21.0938 3.75005C21.0012 3.75003 20.9107 3.77743 20.8337 3.8288L18.1393 5.62505H16.4063C16.4004 5.62505 16.3949 5.6257 16.3893 5.62593C16.3757 5.62593 16.3622 5.62505 16.3486 5.62505H14.2044L12.307 4.36013C12.5738 4.1779 12.789 3.92982 12.9316 3.63995C13.0743 3.35008 13.1396 3.02826 13.1213 2.70571C13.1029 2.38315 13.0015 2.07081 12.8269 1.79899C12.6523 1.52716 12.4104 1.30507 12.1247 1.15427C11.839 1.00346 11.5191 0.929052 11.1962 0.938262C10.8733 0.947473 10.5582 1.03999 10.2815 1.20683C10.0049 1.37368 9.77602 1.60919 9.61719 1.89053C9.45836 2.17187 9.37493 2.48948 9.375 2.81255C9.375 2.93687 9.42439 3.0561 9.51229 3.14401C9.6002 3.23192 9.71943 3.2813 9.84375 3.2813C9.96807 3.2813 10.0873 3.23192 10.1752 3.14401C10.2631 3.0561 10.3125 2.93687 10.3125 2.81255C10.3125 2.62713 10.3675 2.44588 10.4705 2.29171C10.5735 2.13753 10.7199 2.01737 10.8912 1.94642C11.0625 1.87546 11.251 1.85689 11.4329 1.89307C11.6148 1.92924 11.7818 2.01853 11.9129 2.14964C12.044 2.28075 12.1333 2.4478 12.1695 2.62966C12.2057 2.81151 12.1871 3.00001 12.1161 3.17132C12.0452 3.34262 11.925 3.48904 11.7708 3.59206C11.6167 3.69507 11.4354 3.75005 11.25 3.75005C11.1574 3.75003 11.067 3.77743 10.99 3.8288L8.29559 5.62505H6.15141C5.62861 5.62453 5.12069 5.79907 4.70864 6.12085C4.2966 6.44262 4.00416 6.8931 3.87797 7.40044C3.87426 7.41501 3.87129 7.42976 3.86906 7.44468L2.81789 14.4619C2.81437 14.4848 2.81257 14.5081 2.8125 14.5313V23.9063C2.8125 24.0306 2.86189 24.1499 2.94979 24.2378C3.0377 24.3257 3.15693 24.3751 3.28125 24.3751H6.09375C6.21807 24.3751 6.3373 24.3257 6.42521 24.2378C6.51311 24.1499 6.5625 24.0306 6.5625 23.9063V23.4376H9.375C9.49932 23.4376 9.61855 23.3882 9.70646 23.3003C9.79436 23.2124 9.84375 23.0931 9.84375 22.9688V22.5001H12.6563V22.9688C12.6563 23.0931 12.7056 23.2124 12.7935 23.3003C12.8815 23.3882 13.0007 23.4376 13.125 23.4376H15.2338L15.0005 28.5725C14.9976 28.6358 15.0076 28.699 15.0298 28.7583C15.0521 28.8177 15.0861 28.8719 15.1298 28.9177C15.1736 28.9635 15.2262 28.9999 15.2845 29.0248C15.3427 29.0497 15.4054 29.0626 15.4688 29.0626H26.7188C26.7821 29.0626 26.8448 29.0497 26.903 29.0248C26.9613 28.9999 27.0139 28.9635 27.0577 28.9177C27.1014 28.8719 27.1355 28.8177 27.1577 28.7583C27.1799 28.699 27.1899 28.6358 27.187 28.5725L26.25 7.95761ZM25.3949 9.79277C25.0303 9.68829 24.7631 9.4221 24.5841 8.98681C24.5129 8.80961 24.4601 8.62556 24.4266 8.43755H25.3333L25.3949 9.79277ZM25.3125 7.50005H18.6395L18.6312 7.44462C18.6289 7.42974 18.626 7.41499 18.6223 7.40038C18.5467 7.09731 18.4112 6.81242 18.2238 6.56249H25.3125V7.50005ZM21.0938 4.78218L22.3581 5.62505H19.8294L21.0938 4.78218ZM15.3911 6.56255L15.1743 7.97243C15.1482 8.14121 15.0728 8.29851 14.9576 8.42458C14.8424 8.55065 14.6925 8.63987 14.5267 8.68103C14.3609 8.7222 14.1867 8.71348 14.0259 8.65596C13.8651 8.59844 13.7249 8.4947 13.6228 8.35775C14.0944 7.8651 14.4003 7.23749 14.4979 6.56255H15.3911ZM8.95342 6.56255H13.5469C13.439 7.09206 13.1515 7.56803 12.733 7.90988C12.3145 8.25173 11.7907 8.43846 11.2503 8.43846C10.7099 8.43846 10.1861 8.25173 9.76762 7.90988C9.34911 7.56803 9.06158 7.09206 8.95371 6.56255H8.95342ZM11.25 4.78218L12.5143 5.62505H9.98566L11.25 4.78218ZM8.00209 6.56255C8.09973 7.2375 8.40571 7.86511 8.87731 8.35775C8.77526 8.4947 8.63502 8.59844 8.47421 8.65596C8.31339 8.71348 8.13917 8.7222 7.97342 8.68103C7.80767 8.63987 7.65777 8.55065 7.54255 8.42458C7.42733 8.29851 7.35192 8.14121 7.3258 7.97243L7.10889 6.56255H8.00209ZM8.90625 22.5001H6.5625V13.5938C6.5625 13.4695 6.51311 13.3503 6.42521 13.2623C6.3373 13.1744 6.21807 13.1251 6.09375 13.1251C5.96943 13.1251 5.8502 13.1744 5.76229 13.2623C5.67439 13.3503 5.625 13.4695 5.625 13.5938V23.4376H3.75V14.5665L4.79244 7.60745C4.87178 7.30767 5.04813 7.04258 5.29397 6.85356C5.5398 6.66453 5.8413 6.56221 6.15141 6.56255H6.16031L6.3992 8.11529C6.45308 8.49525 6.62867 8.84751 6.89965 9.11925C7.17062 9.391 7.52238 9.56759 7.90219 9.62255C8.24176 9.67798 8.59011 9.63529 8.90625 9.49951V22.5001ZM9.84375 21.5626V9.05753C10.2831 9.26658 10.7635 9.37505 11.25 9.37505C11.7365 9.37505 12.2169 9.26658 12.6563 9.05753V21.5626H9.84375ZM13.5938 9.49933C13.9099 9.63509 14.2582 9.67777 14.5978 9.62238C14.9776 9.56742 15.3293 9.39086 15.6003 9.11915C15.8713 8.84743 16.0469 8.49522 16.1008 8.11529L16.3397 6.56255H16.3486C16.6587 6.56221 16.9602 6.66453 17.206 6.85356C17.4519 7.04258 17.6282 7.30767 17.7076 7.60745L18.75 14.5665V23.4376H16.875V13.5938C16.875 13.4695 16.8256 13.3503 16.7377 13.2623C16.6498 13.1744 16.5306 13.1251 16.4063 13.1251C16.2819 13.1251 16.1627 13.1744 16.0748 13.2623C15.9869 13.3503 15.9375 13.4695 15.9375 13.5938V22.5001H13.5938V9.49933ZM20.625 28.1251H15.9593L16.1337 24.2872C16.2131 24.3443 16.3084 24.3751 16.4063 24.3751H19.2188C19.3431 24.3751 19.4623 24.3257 19.5502 24.2378C19.6381 24.1499 19.6875 24.0306 19.6875 23.9063V14.5313C19.6875 14.508 19.6858 14.4848 19.6823 14.4618L18.7799 8.43755H20.625V28.1251ZM21.5625 28.1251V8.43755H23.4769C23.5184 8.73789 23.5951 9.03231 23.7054 9.31476C24.0374 10.1446 24.6458 10.6471 25.4388 10.7578L26.2282 28.1251H21.5625Z" fill="#4A4C56"/>
</svg>
