<svg width="30" height="30" viewBox="0 0 30 30" fill="none" xmlns="http://www.w3.org/2000/svg">
<g clip-path="url(#clip0_6364_2077)">
<path d="M15 6.67968C10.4122 6.67968 6.67969 10.4122 6.67969 15C6.67969 19.5878 10.4122 23.3203 15 23.3203C19.5878 23.3203 23.3203 19.5878 23.3203 15C23.3203 10.4122 19.5878 6.67968 15 6.67968ZM15 22.1484C11.0583 22.1484 7.85156 18.9417 7.85156 15C7.85156 11.0583 11.0583 7.85156 15 7.85156C18.9417 7.85156 22.1484 11.0583 22.1484 15C22.1484 18.9417 18.9417 22.1484 15 22.1484ZM29.6889 0.0684337C29.595 0.0185675 29.4892 -0.00480452 29.383 0.000820744C29.2768 0.00644601 29.1741 0.0408567 29.086 0.100367C26.2095 2.04398 24.4922 5.27695 24.4922 8.74857V16.3512C24.4922 17.1667 24.8098 17.9333 25.3863 18.5099L26.4844 19.608V28.2422C26.4844 29.2114 27.2729 30 28.2422 30C29.2114 30 30 29.2114 30 28.2422V0.585934C30 0.369195 29.8804 0.170152 29.6889 0.0684337ZM28.8281 28.2422C28.8281 28.5653 28.5653 28.8281 28.2422 28.8281C27.9191 28.8281 27.6562 28.5653 27.6562 28.2422V19.3652C27.6562 19.2098 27.5945 19.0608 27.4846 18.9509L26.215 17.6812C25.8597 17.326 25.6641 16.8537 25.6641 16.3512V8.74857C25.6641 6.05443 26.829 3.52236 28.8281 1.77521V28.2422Z" fill="#4A4C56"/>
<path d="M13.6557 10.3531C13.5287 10.0555 13.1843 9.91728 12.8868 10.0443C11.9151 10.458 11.0867 11.1485 10.5047 12.0297C9.9227 12.9109 9.61286 13.9439 9.61377 15C9.61377 15.3236 9.87609 15.5859 10.1997 15.5859C10.5233 15.5859 10.7856 15.3236 10.7856 15C10.7849 14.1736 11.0274 13.3653 11.4828 12.6757C11.9383 11.9861 12.5866 11.4458 13.3469 11.1221C13.6445 10.9951 13.7828 10.6508 13.6557 10.3531ZM15 9.61377L14.9704 9.61383C14.6468 9.616 14.3862 9.88008 14.3884 10.2037C14.3906 10.526 14.6525 10.7857 14.9743 10.7857H14.9783L15 10.7856C15.3236 10.7856 15.5859 10.5233 15.5859 10.1997C15.5859 9.87609 15.3236 9.61377 15 9.61377ZM23.1224 7.29369C22.0872 6.20291 20.8669 5.34463 19.4955 4.74275C18.0755 4.11955 16.5629 3.80355 15 3.80355C13.2141 3.80355 11.5069 4.21172 9.9259 5.0168C9.63756 5.16363 9.52277 5.51643 9.66961 5.80482C9.8165 6.09311 10.1693 6.20783 10.4577 6.06105C11.8724 5.3407 13.4006 4.97543 15 4.97543C17.7771 4.97543 20.3599 6.0852 22.2724 8.10041C22.3271 8.15818 22.393 8.20418 22.4661 8.23558C22.5392 8.26697 22.618 8.2831 22.6975 8.28299C22.8476 8.28317 22.992 8.22553 23.1008 8.12203C23.3355 7.89926 23.3452 7.52842 23.1224 7.29369ZM23.6913 21.116C23.4374 20.9153 23.0689 20.9584 22.8683 21.2122C20.9527 23.6351 18.0848 25.0246 15 25.0246C13.0693 25.0246 11.1951 24.4747 9.5799 23.4345C9.30791 23.2592 8.94522 23.3378 8.77002 23.6098C8.59482 23.8819 8.67334 24.2445 8.94539 24.4196C10.7502 25.582 12.8439 26.1964 15 26.1964C18.4453 26.1964 21.6482 24.6446 23.7875 21.939C23.9882 21.6852 23.9452 21.3167 23.6913 21.116ZM7.96629 22.144L7.95768 22.1341C7.95457 22.1303 7.95146 22.1264 7.94824 22.1227C7.73982 21.875 7.37021 21.8434 7.12266 22.0518C6.8751 22.2602 6.84334 22.6298 7.05182 22.8774L7.0575 22.8841L7.05779 22.8839C7.064 22.8918 7.07045 22.8996 7.07713 22.9073C7.1321 22.9715 7.20034 23.023 7.27714 23.0583C7.35394 23.0935 7.43747 23.1117 7.52197 23.1116C7.66193 23.1117 7.79729 23.0616 7.90336 22.9703C8.14887 22.7595 8.17705 22.3896 7.96629 22.144ZM7.26562 0C6.94201 0 6.67969 0.262324 6.67969 0.585938V6.91406H5.62453C5.62459 6.91078 5.625 6.90762 5.625 6.90428V0.585938C5.625 0.262324 5.36268 0 5.03906 0C4.71545 0 4.45312 0.262324 4.45312 0.585938V6.90428C4.45312 6.90756 4.45359 6.91078 4.45359 6.91406H3.39797C3.39803 6.91078 3.39844 6.90762 3.39844 6.90428V0.585938C3.39844 0.262324 3.13611 0 2.8125 0C2.48889 0 2.22656 0.262324 2.22656 0.585938V6.90428C2.22656 6.90756 2.22703 6.91078 2.22703 6.91406H1.17188V0.585938C1.17188 0.262324 0.909551 0 0.585938 0C0.262324 0 0 0.262324 0 0.585938V7.73438C0 9.17168 0.872109 10.4689 2.16797 11.0296V28.2422C2.16797 29.2114 2.95652 30 3.92578 30C4.89504 30 5.68359 29.2114 5.68359 28.2422V11.0296C6.97945 10.4689 7.85156 9.17168 7.85156 7.73438V0.585938C7.85156 0.262324 7.58924 0 7.26562 0ZM4.935 10.0559C4.81296 10.0911 4.70569 10.1651 4.62935 10.2666C4.553 10.3681 4.51172 10.4917 4.51172 10.6188V28.2422C4.51172 28.5653 4.24887 28.8281 3.92578 28.8281C3.6027 28.8281 3.33984 28.5653 3.33984 28.2422V10.6188C3.33984 10.4917 3.29856 10.3681 3.22222 10.2666C3.14587 10.1651 3.0386 10.0911 2.91656 10.0559C2.0035 9.79201 1.33564 9.00826 1.19836 8.08594H6.65314C6.51592 9.00826 5.84807 9.79201 4.935 10.0559Z" fill="#4A4C56"/>
</g>
<defs>
<clipPath id="clip0_6364_2077">
<rect width="30" height="30" fill="white"/>
</clipPath>
</defs>
</svg>
