<svg width="30" height="30" viewBox="0 0 30 30" fill="none" xmlns="http://www.w3.org/2000/svg">
<g clip-path="url(#clip0_6364_2084)">
<path d="M28 0H15V1H28C28.5522 1 29 1.44775 29 2V28C29 28.5522 28.5522 29 28 29H18V30H28C29.1045 30 30 29.1045 30 28V2C30 0.8955 29.1045 0 28 0Z" fill="#4A4C56"/>
<path d="M21 3C20.3616 3.0002 19.7305 3.13613 19.1487 3.39878C18.5668 3.66143 18.0474 4.04479 17.625 4.52344L18.375 5.18556C19.594 3.80344 21.6758 3.6035 23.1358 4.72806C24.5954 5.85281 24.9334 7.91675 23.9083 9.448C22.8831 10.9793 20.8459 11.4534 19.25 10.532L18.75 11.3974C20.3884 12.3431 22.4431 12.1631 23.8921 10.947C25.3411 9.73094 25.875 7.73875 25.228 5.96125C24.5811 4.18356 22.8916 3.00025 21 3Z" fill="#4A4C56"/>
<path d="M21 10C22.3806 10 23.5 8.88063 23.5 7.5C23.5 6.11937 22.3806 5 21 5C19.6194 5 18.5 6.11937 18.5 7.5C18.5017 8.88013 19.6199 9.99831 21 10ZM21 6C21.8284 6 22.5 6.67163 22.5 7.5C22.5 8.32837 21.8284 9 21 9C20.1716 9 19.5 8.32837 19.5 7.5C19.5 6.67163 20.1716 6 21 6ZM21 13.5C17.7519 13.4888 14.9265 15.7222 14.1875 18.885L15.1604 19.115C15.7522 16.6223 17.8613 14.7805 20.4109 14.5296C22.9604 14.2788 25.3879 15.6746 26.4541 18.0039C27.5203 20.3335 26.9895 23.083 25.1331 24.8484C23.2768 26.614 20.5041 27.0061 18.2309 25.8244L17.7691 26.7109C20.3462 28.0508 23.4831 27.6594 25.6526 25.7278C27.822 23.7961 28.573 20.7256 27.5401 18.0107C26.5071 15.2959 23.9048 13.501 21 13.5Z" fill="#4A4C56"/>
<path d="M21 24.5C20.016 24.5007 19.0664 24.138 18.3335 23.4814L17.6665 24.2266C19.3474 25.7295 21.8262 25.9214 23.7183 24.6953C25.6106 23.4693 26.448 21.1282 25.7629 18.9803C25.0779 16.832 23.0398 15.4079 20.7871 15.5037C18.5344 15.5994 16.6245 17.1909 16.124 19.3894L17.0991 19.6106C17.5644 17.5698 19.5244 16.2329 21.5943 16.5447C23.6641 16.8562 25.1436 18.7107 24.9878 20.7978C24.8318 22.8853 23.093 24.4995 21 24.5ZM27 2H28V3H27V2ZM14 27H15V28H14V27ZM27 27H28V28H27V27Z" fill="#4A4C56"/>
<path d="M1.5 30H15.5C16.3284 30 17 29.3284 17 28.5V21.5C17 20.6716 16.3284 20 15.5 20H12.3384L11.4646 17.8139C11.4274 17.7212 11.3633 17.6417 11.2804 17.5857C11.1976 17.5298 11.0999 17.4999 11 17.5H6C5.90005 17.4999 5.80237 17.5298 5.71955 17.5857C5.63674 17.6417 5.57259 17.7212 5.53538 17.8139L4.66163 20H1.5C0.671625 20 0 20.6716 0 21.5V28.5C0 29.3284 0.671625 30 1.5 30ZM1 21.5C1 21.3674 1.05268 21.2402 1.14645 21.1464C1.24021 21.0527 1.36739 21 1.5 21H5C5.09995 21.0001 5.19763 20.9702 5.28045 20.9143C5.36327 20.8583 5.42742 20.7788 5.46463 20.6861L6.33838 18.5H10.6616L11.5354 20.6861C11.5726 20.7788 11.6367 20.8583 11.7196 20.9143C11.8024 20.9702 11.9001 21.0001 12 21H15.5C15.6326 21 15.7598 21.0527 15.8536 21.1464C15.9473 21.2402 16 21.3674 16 21.5V28.5C16 28.6326 15.9473 28.7598 15.8536 28.8536C15.7598 28.9473 15.6326 29 15.5 29H1.5C1.36739 29 1.24021 28.9473 1.14645 28.8536C1.05268 28.7598 1 28.6326 1 28.5V21.5Z" fill="#4A4C56"/>
<path d="M8.5 28C10.4331 28 12 26.4331 12 24.5C12 22.5669 10.4331 21 8.5 21C6.56687 21 5 22.5669 5 24.5C5.00219 26.4321 6.56787 27.9978 8.5 28ZM8.5 22C9.88062 22 11 23.1194 11 24.5C11 25.8806 9.88062 27 8.5 27C7.11938 27 6 25.8806 6 24.5C6.00169 23.1199 7.11987 22.0017 8.5 22ZM2.5 22H3.5V23H2.5V22ZM13 22H15V23H13V22ZM0.5 12H2.04C2.26294 13.5329 3.46706 14.7371 5 14.96V15C5 15.8284 5.67163 16.5 6.5 16.5C7.32837 16.5 8 15.8284 8 15V8C8 7.17163 7.32837 6.5 6.5 6.5C5.67163 6.5 5 7.17163 5 8V8.04C4.23984 8.1491 3.53687 8.50583 3 9.05494V9C3 5.68625 5.68625 3 9 3C12.3138 3 15 5.68625 15 9V9.05494C14.4631 8.50586 13.7602 8.14915 13 8.04006V8C13 7.17163 12.3284 6.5 11.5 6.5C10.6716 6.5 10 7.17163 10 8V15C10 15.8284 10.6716 16.5 11.5 16.5C12.3284 16.5 13 15.8284 13 15V14.96C14.5329 14.7371 15.7371 13.5329 15.96 12H17.5C17.6326 12 17.7598 11.9473 17.8536 11.8536C17.9473 11.7598 18 11.6326 18 11.5V9C18 4.02956 13.9704 0 9 0C4.02956 0 0 4.02956 0 9V11.5C0 11.6326 0.0526784 11.7598 0.146447 11.8536C0.240215 11.9473 0.367392 12 0.5 12ZM6 14.5V8C6 7.86739 6.05268 7.74022 6.14645 7.64645C6.24021 7.55268 6.36739 7.5 6.5 7.5C6.63261 7.5 6.75979 7.55268 6.85355 7.64645C6.94732 7.74022 7 7.86739 7 8V15C7 15.1326 6.94732 15.2598 6.85355 15.3536C6.75979 15.4473 6.63261 15.5 6.5 15.5C6.36739 15.5 6.24021 15.4473 6.14645 15.3536C6.05268 15.2598 6 15.1326 6 15V14.5ZM12 8.5V15C12 15.1326 11.9473 15.2598 11.8536 15.3536C11.7598 15.4473 11.6326 15.5 11.5 15.5C11.3674 15.5 11.2402 15.4473 11.1464 15.3536C11.0527 15.2598 11 15.1326 11 15V8C11 7.86739 11.0527 7.74022 11.1464 7.64645C11.2402 7.55268 11.3674 7.5 11.5 7.5C11.6326 7.5 11.7598 7.55268 11.8536 7.64645C11.9473 7.74022 12 7.86739 12 8V8.5ZM13 13.95V9.05C14.1653 9.28663 15.0025 10.3111 15.0025 11.5C15.0025 12.6889 14.1653 13.7134 13 13.95ZM5 9.05V13.95C3.83469 13.7134 2.9975 12.6889 2.9975 11.5C2.9975 10.3111 3.83475 9.28663 5 9.05ZM1 9C1 4.58181 4.58181 1 9 1C13.4182 1 17 4.58181 17 9V11H16V9C16 5.13406 12.8659 2 9 2C5.13406 2 2 5.13406 2 9V11H1V9Z" fill="#4A4C56"/>
</g>
<defs>
<clipPath id="clip0_6364_2084">
<rect width="30" height="30" fill="white"/>
</clipPath>
</defs>
</svg>
