<svg width="20" height="21" viewBox="0 0 20 21" fill="none" xmlns="http://www.w3.org/2000/svg">
<path d="M2.5 13.8337L6.22472 10.1089C6.50769 9.82599 6.89148 9.66699 7.29167 9.66699C7.69185 9.66699 8.07564 9.82599 8.35858 10.1089L11.6667 13.417M11.6667 13.417L12.9167 14.667M11.6667 13.417L13.3081 11.7756C13.591 11.4927 13.9748 11.3337 14.375 11.3337C14.7752 11.3337 15.159 11.4927 15.4419 11.7756L17.5 13.8337" stroke="#777980" stroke-width="1.5" stroke-linecap="round" stroke-linejoin="round"/>
<path d="M12.9167 7.16634C13.1467 7.16634 13.3333 6.97979 13.3333 6.74967C13.3333 6.51956 13.1467 6.33301 12.9167 6.33301M12.9167 7.16634C12.6866 7.16634 12.5 6.97979 12.5 6.74967C12.5 6.51956 12.6866 6.33301 12.9167 6.33301M12.9167 7.16634V6.33301" stroke="#777980" stroke-width="1.5" stroke-linecap="round" stroke-linejoin="round"/>
<path d="M3.08229 16.9557C2.08398 15.7868 2.08398 14.0244 2.08398 10.4997C2.08398 6.9749 2.08398 5.21251 3.08229 4.04364C3.22405 3.87766 3.37863 3.72307 3.54462 3.58132C4.71348 2.58301 6.47588 2.58301 10.0007 2.58301C13.5254 2.58301 15.2878 2.58301 16.4567 3.58132C16.6227 3.72307 16.7772 3.87766 16.919 4.04364C17.9173 5.21251 17.9173 6.9749 17.9173 10.4997C17.9173 14.0244 17.9173 15.7868 16.919 16.9557C16.7772 17.1217 16.6227 17.2763 16.4567 17.418C15.2878 18.4163 13.5254 18.4163 10.0007 18.4163C6.47588 18.4163 4.71348 18.4163 3.54462 17.418C3.37863 17.2763 3.22405 17.1217 3.08229 16.9557Z" stroke="#777980" stroke-width="1.5" stroke-linecap="round" stroke-linejoin="round"/>
</svg>
