<svg width="31" height="30" viewBox="0 0 31 30" fill="none" xmlns="http://www.w3.org/2000/svg">
<path d="M19.1921 26.1698C19.2799 25.5002 19.5222 24.8601 19.8998 24.3001C19.9087 24.2838 19.9168 24.2671 19.9237 24.2499C28.0121 19.5039 28.4953 9.13342 28.4993 9.01834C28.5036 8.90548 28.4694 8.79453 28.4024 8.70359C28.3355 8.61264 28.2397 8.54708 28.1307 8.5176C27.1854 8.2572 26.2861 7.85234 25.4645 7.31736C25.523 7.04964 25.5068 6.77101 25.4179 6.51181C25.329 6.25262 25.1706 6.02278 24.9601 5.84733C24.7496 5.67188 24.495 5.55753 24.2241 5.51674C23.9531 5.47595 23.6761 5.51027 23.4233 5.61598C22.84 4.99637 22.3216 4.3187 21.8763 3.59355C21.868 3.58014 21.8592 3.56719 21.8499 3.55447C21.511 3.01629 21.2203 2.44915 20.9814 1.85971C20.7912 0.584824 18.0554 0 15.4998 0C12.9443 0 10.2085 0.584824 10.0183 1.85971C9.77935 2.44915 9.4887 3.01629 9.14974 3.55447C9.14048 3.56719 9.1317 3.58014 9.12337 3.59355C8.67805 4.3187 8.15969 4.99637 7.57638 5.61598C7.32356 5.50946 7.04632 5.47453 6.77498 5.515C6.50364 5.55547 6.24866 5.66979 6.03793 5.84544C5.82719 6.0211 5.66883 6.25132 5.58015 6.51094C5.49148 6.77055 5.47591 7.04955 5.53515 7.31742C4.71353 7.85237 3.81422 8.25722 2.86902 8.51766C2.76001 8.54715 2.66421 8.61271 2.59725 8.70366C2.5303 8.7946 2.49614 8.90555 2.50035 9.0184C2.50439 9.13348 2.98755 19.5033 11.076 24.2499C11.083 24.2671 11.091 24.2839 11.0999 24.3001C11.4749 24.8613 11.716 25.5011 11.8047 26.1702C8.618 26.4674 6.99982 27.082 6.99982 28.0001C6.99982 29.9036 14.0804 30 15.4998 30C16.9193 30 23.9999 29.9036 23.9999 28C23.9999 27.0816 22.3807 26.467 19.1921 26.1698ZM23.9999 6.49998C24.1324 6.50009 24.2595 6.5528 24.3533 6.64654C24.447 6.74028 24.4997 6.86739 24.4998 6.99996C24.4998 7.27611 24.276 7.49994 23.9999 7.49994C23.7237 7.49994 23.4999 7.27611 23.4999 6.99996C23.4999 6.72381 23.7237 6.49998 23.9999 6.49998ZM22.9998 8.74998C22.9998 9.16418 22.664 9.49998 22.2498 9.49998C21.8358 9.49951 21.5003 9.164 21.4998 8.74998C21.4998 8.33578 21.8356 7.99998 22.2498 7.99998C22.664 7.99998 22.9998 8.33578 22.9998 8.74998ZM15.4998 1.00002C18.3983 1.00002 19.8973 1.71703 19.9984 2.00004C19.8973 2.28299 18.3983 3 15.4998 3C12.575 3 11.0755 2.26998 10.9988 2.00754C11.0755 1.72998 12.575 1.00002 15.4998 1.00002ZM9.95886 4.14451L9.97937 4.11398V4.11422C10.2084 3.74676 10.4193 3.36832 10.6114 2.98025C10.8883 3.16837 11.1891 3.3188 11.5058 3.42756C11.5406 3.44467 11.5774 3.45751 11.6153 3.46582C12.875 3.84242 14.1853 4.02256 15.4999 3.9999C16.8147 4.02254 18.1251 3.84233 19.3849 3.46564C19.4222 3.45737 19.4583 3.44473 19.4927 3.42797C19.8098 3.31915 20.111 3.16857 20.3884 2.9802C20.5805 3.36824 20.7914 3.74668 21.0204 4.11416V4.11393L21.0409 4.14445C21.5158 4.91347 22.067 5.63268 22.6861 6.29121C22.5656 6.50813 22.5016 6.75185 22.4999 6.99996C22.4999 7.00869 22.5024 7.01678 22.5025 7.02551C22.4191 7.01079 22.3347 7.00226 22.25 6.99996C21.3534 7.00283 20.6048 7.68416 20.5175 8.57643C20.3491 8.52811 20.1751 8.5024 20 8.49996C19.0323 8.50195 18.205 9.19652 18.0354 10.1492C17.1276 9.79652 16.096 10.083 15.5 10.8532C15.2914 10.5883 15.0257 10.374 14.7226 10.2262C14.4196 10.0785 14.0871 10.0011 13.7499 9.99996C13.4813 10.0019 13.2152 10.0525 12.9645 10.1492C12.7949 9.19652 11.9676 8.50201 11 8.49996C10.8248 8.50237 10.6508 8.52808 10.4824 8.57643C10.3952 7.68416 9.6465 7.00289 8.74996 6.99996C8.66526 7.00225 8.58085 7.01079 8.49742 7.02551C8.49754 7.01684 8.5 7.00875 8.5 6.99996C8.49828 6.75185 8.43427 6.50814 8.31384 6.29121C8.93285 5.63268 9.48397 4.91348 9.95886 4.14451ZM20.9999 10.5C20.9999 11.0523 20.5521 11.5 19.9998 11.5C19.4478 11.4994 19.0005 11.0521 18.9998 10.5C18.9998 9.94769 19.4475 9.49998 19.9998 9.49998C20.5521 9.49998 20.9999 9.94769 20.9999 10.5ZM18.4998 12.25C18.4998 12.9404 17.9402 13.5 17.2499 13.5C16.5595 13.5 15.9999 12.9404 15.9999 12.25C16.0006 11.56 16.5598 11.0007 17.2499 11C17.9402 11 18.4998 11.5597 18.4998 12.25ZM14.9999 12.25C14.9999 12.9404 14.4402 13.5 13.7499 13.5C13.0595 13.5 12.4999 12.9404 12.4999 12.25C12.5006 11.56 13.0598 11.0007 13.7499 11C14.4402 11 14.9999 11.5597 14.9999 12.25ZM11.9999 10.5C11.9999 11.0523 11.5521 11.5 10.9998 11.5C10.4475 11.5 9.99982 11.0523 9.99982 10.5C10.0005 9.94799 10.4478 9.50062 10.9998 9.49998C11.5521 9.49998 11.9999 9.94769 11.9999 10.5ZM8.74984 7.99998C9.16404 7.99998 9.49984 8.33578 9.49984 8.74998C9.49984 9.16418 9.16404 9.49998 8.74984 9.49998C8.33564 9.49998 7.99984 9.16418 7.99984 8.74998C8.00031 8.33596 8.33582 8.00045 8.74984 7.99998ZM6.99982 6.49998C7.27597 6.49998 7.4998 6.72381 7.4998 6.99996C7.4998 7.27611 7.27597 7.49994 6.99982 7.49994C6.86722 7.49994 6.74005 7.44727 6.64628 7.3535C6.55252 7.25974 6.49984 7.13256 6.49984 6.99996C6.49999 6.86741 6.55272 6.74032 6.64645 6.64659C6.74018 6.55286 6.86726 6.50014 6.99982 6.49998ZM3.52814 9.36621C4.42429 9.08115 5.2782 8.67728 6.06707 8.16539C6.3305 8.38043 6.65976 8.49856 6.99982 8.50002C7.00861 8.50002 7.01664 8.49756 7.02531 8.49744C7.01064 8.5809 7.00212 8.66533 6.99982 8.75004C7.00099 9.71607 7.7838 10.4989 8.74984 10.5001C8.83453 10.4978 8.91894 10.4892 9.00238 10.4745C9.00226 10.4832 8.9998 10.4913 8.9998 10.5001C9.00097 11.6041 9.8957 12.4989 10.9998 12.5C11.1749 12.4976 11.349 12.4719 11.5173 12.4236C11.5489 12.8734 11.7159 13.3032 11.9964 13.6563C12.2769 14.0093 12.6578 14.2692 13.0888 14.4016C13.5199 14.534 13.981 14.5328 14.4113 14.398C14.8417 14.2633 15.2211 14.0014 15.4997 13.6468C15.7783 14.0013 16.1578 14.2632 16.5881 14.3979C17.0185 14.5327 17.4795 14.5339 17.9106 14.4015C18.3416 14.2691 18.7225 14.0093 19.003 13.6562C19.2835 13.3031 19.4506 12.8734 19.4821 12.4236C19.6505 12.4719 19.8245 12.4976 19.9997 12.5C21.1037 12.4989 21.9985 11.6041 21.9996 10.5001C21.9996 10.4913 21.9972 10.4832 21.9971 10.4745C22.0805 10.4892 22.1649 10.4978 22.2496 10.5001C23.2156 10.4989 23.9985 9.71607 23.9996 8.75004C23.9973 8.66533 23.9888 8.5809 23.9741 8.49744C23.9828 8.49762 23.9908 8.50002 23.9996 8.50002C24.3397 8.49856 24.669 8.38043 24.9324 8.16539C25.7214 8.67739 26.5755 9.08128 27.4718 9.36627C27.2829 11.4507 25.9093 21.3943 16.84 24.578C15.9722 24.8794 15.0282 24.8796 14.1603 24.5785C5.10338 21.3989 3.71957 11.4514 3.52814 9.36621ZM15.4998 29C11.1473 29 8.64337 28.3864 8.07941 28.0024C8.39552 27.7954 9.43205 27.4042 11.82 27.173C11.7958 27.4069 11.7517 27.6383 11.6883 27.8647C11.6695 27.9283 11.6635 27.9949 11.6706 28.0608C11.6777 28.1267 11.6979 28.1906 11.73 28.2486C11.762 28.3066 11.8052 28.3577 11.8572 28.3989C11.9091 28.4401 11.9687 28.4705 12.0326 28.4884C12.0964 28.5063 12.1631 28.5114 12.2289 28.5033C12.2947 28.4952 12.3582 28.4741 12.4158 28.4413C12.4734 28.4084 12.5238 28.3644 12.5642 28.3119C12.6047 28.2594 12.6342 28.1993 12.6512 28.1353C12.9392 27.1058 12.9044 26.0128 12.5516 25.0037C12.9629 25.1891 13.3848 25.3658 13.8304 25.5222C14.9121 25.8974 16.0887 25.8972 17.1703 25.5217C17.6156 25.3654 18.0371 25.1888 18.4482 25.0037C18.0953 26.0127 18.0605 27.1058 18.3485 28.1353C18.3663 28.1985 18.3963 28.2576 18.4369 28.3092C18.4775 28.3608 18.5279 28.4039 18.5852 28.4361C18.6424 28.4682 18.7055 28.4888 18.7707 28.4966C18.8359 28.5044 18.902 28.4992 18.9652 28.4815C19.0284 28.4637 19.0876 28.4336 19.1392 28.393C19.1908 28.3524 19.2339 28.3021 19.266 28.2448C19.2982 28.1875 19.3187 28.1245 19.3265 28.0593C19.3343 27.9941 19.3292 27.928 19.3114 27.8647C19.2479 27.6382 19.2035 27.4068 19.1788 27.1729C21.5674 27.4041 22.6041 27.7953 22.9203 28.0024C22.3563 28.3865 19.8524 29 15.4998 29Z" fill="#4A4C56"/>
</svg>
