<svg width="30" height="30" viewBox="0 0 30 30" fill="none" xmlns="http://www.w3.org/2000/svg">
<g clip-path="url(#clip0_6364_2103)">
<path d="M15 0H8.5C8.36739 0 8.24022 0.0526784 8.14645 0.146447C8.05268 0.240215 8 0.367392 8 0.5V4H0.5C0.367392 4 0.240215 4.05268 0.146447 4.14645C0.0526784 4.24021 0 4.36739 0 4.5L0 29.5C0 29.6326 0.0526784 29.7598 0.146447 29.8536C0.240215 29.9473 0.367392 30 0.5 30H15C15.1326 30 15.2598 29.9473 15.3536 29.8536C15.4473 29.7598 15.5 29.6326 15.5 29.5V0.5C15.5 0.367392 15.4473 0.240215 15.3536 0.146447C15.2598 0.0526784 15.1326 0 15 0ZM14.5 26H9V25H14.5V26ZM1 7.5H8V22.5H1V7.5ZM14.5 5.5H9V4H14.5V5.5ZM1 23.5H8V25H1V23.5ZM9 24V6.5H14.5V24H9ZM14.5 1V3H9V1H14.5ZM8 5V6.5H1V5H8ZM1 26H8V29H1V26ZM9 29V27H14.5V29H9Z" fill="#4A4C56"/>
<path d="M29.9839 27.3739L23.9839 4.37394C23.9673 4.31013 23.9383 4.25023 23.8985 4.19769C23.8586 4.14515 23.8088 4.10102 23.7518 4.06784C23.6948 4.03466 23.6319 4.0131 23.5665 4.00438C23.5012 3.99567 23.4347 3.99998 23.3711 4.01707L15.8711 6.01707C15.7434 6.05106 15.6345 6.13418 15.568 6.24827C15.5014 6.36236 15.4828 6.49814 15.5161 6.62594L21.5161 29.6259C21.5326 29.6897 21.5617 29.7496 21.6015 29.8021C21.6414 29.8546 21.6912 29.8986 21.7482 29.9317C21.8052 29.9648 21.8682 29.9863 21.9335 29.9949C21.9989 30.0035 22.0653 29.9991 22.1289 29.9819L29.6289 27.9819C29.7563 27.9478 29.865 27.8649 29.9315 27.751C29.998 27.6371 30.0168 27.5016 29.9839 27.3739ZM17.406 9.90888L23.9399 8.16694L24.1751 9.06682L17.6416 10.8114L17.406 9.90888ZM24.4275 10.037L27.3274 21.1608L20.7959 22.9035L17.896 11.779L24.4275 10.037ZM27.582 22.1289L28.094 24.091L21.5601 25.8329L21.0501 23.8715L27.582 22.1289ZM23.1431 5.11244L23.6875 7.19988L17.1536 8.94132L16.6096 6.85494L23.1431 5.11244ZM22.357 28.8873L21.8125 26.8L28.3464 25.0575L28.8904 27.144L22.357 28.8873ZM6.5 8.99994H2.5C2.36739 8.99994 2.24021 9.05262 2.14645 9.14639C2.05268 9.24016 2 9.36734 2 9.49994V13.4999C2 13.6326 2.05268 13.7597 2.14645 13.8535C2.24021 13.9473 2.36739 13.9999 2.5 13.9999H6.5C6.63261 13.9999 6.75979 13.9473 6.85355 13.8535C6.94732 13.7597 7 13.6326 7 13.4999V9.49994C7 9.36734 6.94732 9.24016 6.85355 9.14639C6.75979 9.05262 6.63261 8.99994 6.5 8.99994ZM6 12.9999H3V9.99994H6V12.9999Z" fill="#4A4C56"/>
</g>
<defs>
<clipPath id="clip0_6364_2103">
<rect width="30" height="30" fill="white"/>
</clipPath>
</defs>
</svg>
