<svg width="14" height="15" viewBox="0 0 14 15" fill="none" xmlns="http://www.w3.org/2000/svg">
<path d="M3.5026 11C2.77651 11.231 2.33594 11.6907 2.33594 12.023C2.33594 12.7467 4.42527 13.3333 7.0026 13.3333C9.57995 13.3333 11.6693 12.7467 11.6693 12.023C11.6693 11.6907 11.2287 11.231 10.5026 11" stroke="#777980" stroke-width="0.875" stroke-linecap="round" stroke-linejoin="round"/>
<path d="M8.45573 5.7513C8.45573 6.55671 7.8028 7.20964 6.9974 7.20964C6.19199 7.20964 5.53906 6.55671 5.53906 5.7513C5.53906 4.94589 6.19199 4.29297 6.9974 4.29297C7.8028 4.29297 8.45573 4.94589 8.45573 5.7513Z" stroke="#777980" stroke-width="0.875" stroke-linecap="round" stroke-linejoin="round"/>
<path d="M11.0807 5.86797C11.0807 8.65683 8.1045 10.4253 7.23388 10.8829C7.08402 10.9618 6.91077 10.9618 6.76091 10.8829C5.89029 10.4253 2.91406 8.65683 2.91406 5.86797C2.91406 3.54837 4.74224 1.66797 6.9974 1.66797C9.25256 1.66797 11.0807 3.54837 11.0807 5.86797Z" stroke="#777980" stroke-width="0.875" stroke-linecap="round" stroke-linejoin="round"/>
</svg>
