<svg width="20" height="20" viewBox="0 0 20 20" fill="none" xmlns="http://www.w3.org/2000/svg">
<path d="M6.66667 13.3337H12.7193C16.459 13.3337 17.0277 10.9843 17.7175 7.55789C17.9165 6.56958 18.016 6.07543 17.7767 5.74622C17.5375 5.41699 17.0789 5.41699 16.1617 5.41699H5" stroke="#DE3526" stroke-width="1.5" stroke-linecap="round"/>
<path d="M6.66634 13.3337L4.48195 2.92943C4.29647 2.18748 3.62982 1.66699 2.86505 1.66699H2.08301" stroke="#DE3526" stroke-width="1.5" stroke-linecap="round"/>
<path d="M7.4 13.333H7.05714C5.92102 13.333 5 14.2924 5 15.4758C5 15.6731 5.1535 15.833 5.34286 15.833H14.5833" stroke="#DE3526" stroke-width="1.5" stroke-linecap="round" stroke-linejoin="round"/>
<path d="M8.75 18.333C9.44036 18.333 10 17.7734 10 17.083C10 16.3927 9.44036 15.833 8.75 15.833C8.05964 15.833 7.5 16.3927 7.5 17.083C7.5 17.7734 8.05964 18.333 8.75 18.333Z" stroke="#DE3526" stroke-width="1.5"/>
<path d="M14.583 18.333C15.2734 18.333 15.833 17.7734 15.833 17.083C15.833 16.3927 15.2734 15.833 14.583 15.833C13.8927 15.833 13.333 16.3927 13.333 17.083C13.333 17.7734 13.8927 18.333 14.583 18.333Z" stroke="#DE3526" stroke-width="1.5"/>
</svg>
