<svg width="30" height="28" viewBox="0 0 30 28" fill="none" xmlns="http://www.w3.org/2000/svg">
<path d="M25.8674 2.00586C23.4868 0.910513 20.3955 2.52014 18.9762 5.59379C18.1725 7.33438 18.0401 9.22333 18.6132 10.7763C19.0234 11.8874 19.7518 12.7102 20.7201 13.1557C21.2201 13.3846 21.764 13.5019 22.3139 13.4994C24.3412 13.4994 26.4942 11.9871 27.6113 9.56774C28.415 7.82715 28.5473 5.93815 27.9742 4.38524C27.5643 3.27436 26.8358 2.45159 25.8674 2.00586ZM25.8831 2.80965C26.3755 3.11454 26.7788 3.5439 27.0522 4.05442L26.9431 4.29055L25.505 3.62891L25.8831 2.80965ZM20.9147 8.11573L21.4576 6.93987L22.8959 7.60163L22.353 8.77749L20.9147 8.11573ZM22.0582 9.41586L21.5153 10.5917L20.077 9.92991L20.6199 8.75411L22.0582 9.41586ZM21.7523 6.30155L22.2953 5.12569L23.7336 5.78745L23.1906 6.96354L21.7523 6.30155ZM23.5347 7.8953L24.973 8.55706L24.4301 9.73292L22.9918 9.07116L23.5347 7.8953ZM23.8295 7.25663L24.3724 6.08083L25.8108 6.74258L25.2678 7.91844L23.8295 7.25663ZM24.6671 5.44321L25.2101 4.26758L26.6484 4.92934L26.1055 6.10514L24.6671 5.44321ZM23.5363 2.43805C23.7745 2.38851 24.017 2.36311 24.2603 2.36223C24.5943 2.36126 24.9264 2.41323 25.2441 2.51622L24.8663 3.33518L23.4277 2.67336L23.5363 2.43805ZM23.1329 3.31174L24.5712 3.9735L24.0285 5.14936L22.59 4.4876L23.1329 3.31174ZM22.2706 2.91495L22.4943 3.01784L21.9514 4.1937L21.0884 3.79667C21.4426 3.45282 21.8401 3.15644 22.2706 2.91495ZM20.5859 4.33948L21.6565 4.83208L21.1136 6.00782L19.8491 5.42604C20.0602 5.04161 20.3069 4.67783 20.5859 4.33948ZM19.5394 6.05756L20.8188 6.64649L20.2759 7.82235L19.1314 7.29577C19.2296 6.87153 19.3662 6.4571 19.5394 6.05756ZM19.0085 9.43842C18.9501 8.96478 18.9495 8.4858 19.0067 8.01202L19.9812 8.46032L19.4382 9.63618L19.0085 9.43842ZM20.703 12.3511C20.2107 12.0458 19.8076 11.6162 19.5343 11.1055L19.7823 10.5685L21.2206 11.2303L20.703 12.3511ZM23.0487 12.7251C22.4824 12.8476 21.894 12.82 21.3417 12.645L21.8593 11.5241L23.2976 12.1858L23.0487 12.7251ZM23.5924 11.5473L22.154 10.8858L22.697 9.70995L24.1353 10.3717L23.5924 11.5473ZM24.6604 12.0388L24.2311 11.8412L24.7741 10.6654L25.7472 11.1131C25.4231 11.4639 25.0583 11.7747 24.6604 12.039V12.0388ZM26.2132 10.5536L25.0688 10.0273L25.6118 8.85149L26.8928 9.44083C26.7007 9.83177 26.4734 10.2043 26.2135 10.5539L26.2132 10.5536ZM27.1731 8.79583L25.9062 8.21293L26.4492 7.03708L27.524 7.53167C27.4468 7.96311 27.3294 8.38638 27.1734 8.79594L27.1731 8.79583ZM27.6116 6.79778L26.7439 6.39858L27.2869 5.22278L27.5126 5.32661C27.6103 5.81059 27.6437 6.30535 27.6119 6.79807L27.6116 6.79778Z" fill="#4A4C56"/>
<path d="M26.5359 0.55935C23.4872 -0.843267 19.5526 1.16527 17.7652 5.03685C16.7636 7.20599 16.6034 9.57265 17.3257 11.5299C17.697 12.5361 18.2732 13.3587 19.0175 13.96L17.6207 16.9853L17.4691 16.9529C17.3041 16.9176 17.1365 16.8956 16.968 16.8873L16.7118 16.516C16.5042 16.2156 16.4152 15.849 16.462 15.4869C16.531 14.9526 16.3998 14.4117 16.0935 13.9686L8.36402 2.76874C8.02457 2.27878 7.50488 1.9432 6.91864 1.83542C6.3324 1.72765 5.72733 1.85645 5.23582 2.19365C4.99258 2.36073 4.78469 2.57415 4.62405 2.82169C4.4634 3.06922 4.35315 3.346 4.29961 3.6362C4.24606 3.92639 4.25028 4.2243 4.31201 4.51286C4.37374 4.80142 4.49178 5.07498 4.65937 5.31787L9.17953 11.8675C7.90977 11.6343 6.60132 11.7328 5.38079 12.1534C4.16026 12.5741 3.06896 13.3027 2.21249 14.2686C1.35603 15.2346 0.763387 16.4053 0.49192 17.6674C0.220452 18.9296 0.279348 20.2404 0.662907 21.4731C1.04647 22.7058 1.7417 23.8186 2.68135 24.7039C3.62099 25.5892 4.77323 26.2169 6.02657 26.5264C7.27991 26.8359 8.59192 26.8167 9.83564 26.4706C11.0794 26.1245 12.2127 25.4632 13.126 24.5507C13.1794 24.4974 13.2319 24.4431 13.2836 24.3881C13.1177 24.8609 13.0902 25.3713 13.2042 25.8592C13.3183 26.3471 13.5693 26.7923 13.9276 27.1425C14.2859 27.4927 14.7368 27.7334 15.2272 27.8363C15.7176 27.9392 16.2271 27.8999 16.696 27.7233C17.1649 27.5466 17.5736 27.2397 17.8741 26.8388C18.1747 26.4379 18.3545 25.9595 18.3926 25.4599C18.4307 24.9603 18.3254 24.4602 18.0891 24.0183C17.8528 23.5765 17.4954 23.2113 17.0587 22.9655L17.6266 23.0827L18.2599 23.4257L19.8374 25.7117L19.7912 25.7434C19.7041 25.8033 19.6297 25.8798 19.5721 25.9684C19.5146 26.0571 19.4752 26.1563 19.456 26.2602C19.4368 26.3642 19.4384 26.4709 19.4605 26.5742C19.4826 26.6776 19.5249 26.7756 19.5849 26.8626C19.8324 27.22 20.2115 27.4649 20.6391 27.5436C21.0667 27.6223 21.5081 27.5283 21.8667 27.2823L22.7913 26.6465C22.9848 26.5132 23.1474 26.34 23.2682 26.1385L23.6607 26.3511C24.0602 26.5681 24.5279 26.6229 24.9667 26.5041L26.4946 26.093C26.5863 26.0684 26.6707 26.0219 26.7406 25.9577C26.8105 25.8935 26.8639 25.8133 26.8962 25.724C26.9285 25.6347 26.9388 25.5389 26.9261 25.4448C26.9135 25.3507 26.8783 25.261 26.8236 25.1834L25.6636 23.5389L27.8336 22.6219C27.8361 22.621 27.8385 22.6198 27.8409 22.6188C27.9298 22.5789 28.0074 22.5176 28.0668 22.4404C28.1262 22.3633 28.1656 22.2725 28.1814 22.1764C28.1972 22.0803 28.189 21.9817 28.1574 21.8896C28.1258 21.7974 28.0719 21.7145 28.0004 21.6483L26.4521 20.1359L28.1517 19.0528C28.2323 19.0014 28.2993 18.9311 28.3468 18.848C28.3943 18.765 28.4208 18.6716 28.4242 18.576C28.4275 18.4804 28.4076 18.3854 28.366 18.2992C28.3244 18.213 28.2625 18.1383 28.1856 18.0813L26.9331 17.1539C26.592 16.901 26.1715 16.7792 25.7481 16.8105L20.1993 17.1688L21.2149 14.9691C21.5148 15.0234 21.819 15.0506 22.1238 15.0503C24.7024 15.0503 27.4228 13.1601 28.8239 10.1257C29.8255 7.95658 29.9857 5.58992 29.2634 3.63271C28.7339 2.19951 27.7911 1.13691 26.5359 0.55935ZM16.9986 17.5942L16.0413 22.0573C15.7207 22.0221 15.2607 21.9342 14.9644 21.5606C15.2062 20.8122 15.329 20.0303 15.3281 19.2438C15.328 18.9713 15.3133 18.699 15.284 18.428C15.4667 17.877 16.199 17.5335 16.9986 17.5942ZM15.4148 22.6502C15.0002 22.7061 14.6049 22.8606 14.2623 23.1007C14.4218 22.8363 14.5647 22.5621 14.69 22.2799C14.9046 22.4503 15.151 22.5763 15.4148 22.6502ZM8.93214 12.5377C9.36411 12.609 9.78822 12.7217 10.1986 12.8741C10.2738 12.9024 10.3564 12.9041 10.4326 12.8789C10.5089 12.8538 10.5742 12.8033 10.6178 12.7358V12.7354C10.6462 12.6913 10.6643 12.6415 10.6709 12.5895C10.6775 12.5375 10.6724 12.4846 10.656 12.4348C10.6396 12.3851 10.6122 12.3396 10.5759 12.3018C10.5396 12.2639 10.4953 12.2347 10.4463 12.2162C10.3709 12.1881 10.2951 12.1617 10.219 12.1362L5.2381 4.91826C5.12301 4.75145 5.04194 4.56358 4.99956 4.3654C4.95717 4.16722 4.95429 3.96262 4.99108 3.76333C5.02788 3.56403 5.10362 3.37395 5.21397 3.20397C5.32433 3.03399 5.46713 2.88745 5.63419 2.77273C5.97219 2.54089 6.38824 2.45234 6.79135 2.52644C7.19446 2.60053 7.55183 2.83124 7.78529 3.16812L15.5144 14.368C15.722 14.6684 15.811 15.035 15.7642 15.3972C15.6951 15.9314 15.8264 16.4722 16.1327 16.9153L16.1611 16.9563C15.7764 17.0392 15.418 17.2157 15.1177 17.4701C14.7932 16.1308 14.1038 14.9076 13.126 13.9365C12.9803 13.791 12.8301 13.6529 12.6755 13.5221C12.6404 13.4908 12.5994 13.4668 12.5549 13.4516C12.5105 13.4364 12.4634 13.4303 12.4165 13.4336C12.3696 13.437 12.3239 13.4496 12.282 13.4709C12.2401 13.4922 12.2029 13.5217 12.1726 13.5577C12.1423 13.5936 12.1195 13.6352 12.1055 13.6801C12.0916 13.725 12.0868 13.7722 12.0914 13.819C12.0961 13.8658 12.1101 13.9112 12.1325 13.9524C12.155 13.9937 12.1855 14.0301 12.2223 14.0594C12.2732 14.1025 12.323 14.1472 12.3728 14.1925L10.0296 16.5315C9.55771 15.9915 9.21392 15.3517 9.02388 14.6602C8.83385 13.9686 8.80249 13.2431 8.93214 12.5377ZM14.533 18.1226C13.826 18.2529 13.0987 18.2222 12.4052 18.0328C11.7117 17.8433 11.0699 17.5001 10.5273 17.0284L12.871 14.6886C13.7444 15.6492 14.3216 16.8417 14.533 18.1226ZM7.81007 12.4451C7.95093 12.4451 8.09171 12.4495 8.23242 12.4583C8.09019 13.2689 8.13309 14.1011 8.35791 14.8927C8.58273 15.6843 8.98365 16.4148 9.53068 17.0296L7.81007 18.747L3.24679 14.1919C4.49902 13.0646 6.12512 12.4421 7.81007 12.4451ZM0.99562 19.2438C0.991064 17.5597 1.61665 15.9348 2.74939 14.6886L7.31267 19.2438L5.60173 20.9516C4.97975 20.4092 4.24501 20.0118 3.45065 19.7881C2.65628 19.5644 1.82214 19.52 1.00851 19.6581C1.00025 19.5207 0.99562 19.3826 0.99562 19.2438ZM1.08638 20.3571C1.79493 20.2247 2.52424 20.2541 3.21978 20.4433C3.91533 20.6324 4.55913 20.9764 5.10304 21.4494L2.74927 23.799C1.87422 22.8364 1.29666 21.641 1.08638 20.3572V20.3571ZM6.69621 25.9513C5.41137 25.7419 4.21397 25.167 3.24703 24.2954L5.60085 21.9458C6.07421 22.4874 6.41869 23.1291 6.6084 23.8229C6.79812 24.5167 6.82814 25.2444 6.69621 25.9515V25.9513ZM7.39529 26.0293C7.53274 25.2174 7.48775 24.3851 7.26355 23.5928C7.03936 22.8004 6.6416 22.0679 6.09914 21.4484L7.81007 19.7405L12.3734 24.2956C11.7005 24.901 10.9137 25.3661 10.0589 25.6639C9.20417 25.9616 8.29865 26.0859 7.39529 26.0296V26.0293ZM12.8713 23.7987L8.30812 19.2438L10.0293 17.5257C11.0305 18.4139 12.3224 18.9045 13.6607 18.9046C13.9795 18.9043 14.2976 18.8767 14.6117 18.8221C14.6202 18.9619 14.625 19.1025 14.625 19.244C14.6295 20.9279 14.0039 22.5527 12.8713 23.7989V23.7987ZM17.6971 25.2584C17.6971 25.64 17.5839 26.013 17.3719 26.3303C17.1599 26.6476 16.8586 26.8949 16.506 27.0409C16.1535 27.1869 15.7655 27.2251 15.3913 27.1507C15.017 27.0762 14.6732 26.8925 14.4034 26.6226C14.1335 26.3528 13.9498 26.009 13.8753 25.6347C13.8009 25.2605 13.8391 24.8725 13.9851 24.52C14.1311 24.1674 14.3784 23.8661 14.6957 23.6541C15.013 23.4421 15.386 23.3289 15.7676 23.3289C16.2792 23.3294 16.7697 23.5329 17.1314 23.8947C17.4932 24.2565 17.6966 24.747 17.6971 25.2585V25.2584ZM17.4794 22.3323L16.7355 22.1734L17.6906 17.7195L18.4345 17.8785L17.4794 22.3323ZM19.6242 24.1647L21.0019 24.911L20.4168 25.3133L19.6242 24.1647ZM22.3929 26.0672L21.4683 26.7029C21.2633 26.8435 21.011 26.8973 20.7665 26.8523C20.522 26.8074 20.3053 26.6675 20.1636 26.4632C20.1561 26.4523 20.1507 26.44 20.1479 26.427C20.1451 26.414 20.1449 26.4006 20.1473 26.3875C20.1498 26.3744 20.1547 26.362 20.162 26.3508C20.1693 26.3397 20.1787 26.3301 20.1896 26.3226L21.696 25.2868L22.6484 25.8024C22.5816 25.9066 22.4947 25.9965 22.3929 26.067V26.0672ZM26.1554 25.4562L24.7839 25.8253C24.519 25.8971 24.2367 25.864 23.9955 25.7329L18.1484 22.5659L18.4121 21.3354L24.6823 23.6088C24.8306 23.6624 24.9589 23.7603 25.0496 23.8893L26.1554 25.4562ZM27.3976 22.043L25.0859 23.0196L18.5611 20.6414L18.7119 19.9383L25.5476 20.4363C25.612 20.4362 25.6762 20.4318 25.74 20.4232L27.3976 22.043ZM25.7967 17.5122C26.053 17.4926 26.3078 17.5662 26.5143 17.7192L27.6343 18.5486L25.9649 19.6126C25.8244 19.7019 25.6589 19.7436 25.4928 19.7316L18.8609 19.2444L19.1403 17.9416L25.7967 17.5122ZM19.4005 17.2204L18.8781 17.2541L18.3252 17.1359L19.6032 14.3679C19.7488 14.454 19.8987 14.5325 20.0523 14.6032C20.2057 14.6737 20.3627 14.7361 20.5226 14.7901L19.4005 17.2204ZM28.185 9.83099C26.5597 13.351 23.0433 15.2053 20.3462 13.9644C19.2642 13.4664 18.4478 12.5406 17.9849 11.2867C17.3268 9.50322 17.4792 7.33273 18.4032 5.33175C19.686 2.55341 22.147 0.812827 24.4534 0.812827C25.0705 0.809996 25.6808 0.941538 26.2419 1.19832C27.3239 1.69636 28.1403 2.62214 28.6032 3.87605C29.2612 5.65953 29.1089 7.83001 28.185 9.83099Z" fill="#4A4C56"/>
<path d="M6.34095 3.99791L6.27398 3.89737C6.24872 3.8582 6.21593 3.82445 6.17752 3.79807C6.1391 3.7717 6.09583 3.75322 6.05021 3.74372C6.00459 3.73421 5.95753 3.73387 5.91178 3.74272C5.86603 3.75157 5.82249 3.76942 5.7837 3.79524C5.74491 3.82107 5.71164 3.85434 5.68583 3.89314C5.66001 3.93193 5.64217 3.97547 5.63333 4.02123C5.6245 4.06698 5.62484 4.11404 5.63436 4.15966C5.64387 4.20527 5.66236 4.24855 5.68874 4.28696L5.75566 4.3875C5.78104 4.42637 5.81388 4.45982 5.85226 4.48593C5.89065 4.51203 5.93383 4.53028 5.9793 4.53961C6.02478 4.54894 6.07165 4.54918 6.11721 4.5403C6.16278 4.53142 6.20614 4.51361 6.24478 4.48788C6.28343 4.46216 6.31659 4.42904 6.34237 4.39043C6.36814 4.35182 6.38602 4.30849 6.39496 4.26294C6.4039 4.21738 6.40373 4.17051 6.39446 4.12502C6.38519 4.07954 6.367 4.03633 6.34095 3.99791ZM6.93485 4.89018C6.88271 4.81369 6.8025 4.76086 6.71164 4.74315C6.62078 4.72544 6.52659 4.74428 6.44954 4.79558C6.37248 4.84688 6.31877 4.92651 6.30007 5.01717C6.28136 5.10783 6.29917 5.20221 6.34962 5.27983L8.85544 9.04412C8.88069 9.08329 8.91348 9.11704 8.9519 9.14342C8.99031 9.16979 9.03359 9.18827 9.07921 9.19777C9.12483 9.20728 9.17188 9.20761 9.21764 9.19877C9.26339 9.18992 9.30693 9.17207 9.34572 9.14625C9.38451 9.12042 9.41778 9.08715 9.44359 9.04835C9.4694 9.00955 9.48725 8.96601 9.49608 8.92026C9.50492 8.87451 9.50457 8.82745 9.49506 8.78183C9.48555 8.73622 9.46706 8.69294 9.44067 8.65453L6.93485 4.89018Z" fill="#4A4C56"/>
</svg>
