<svg width="30" height="30" viewBox="0 0 30 30" fill="none" xmlns="http://www.w3.org/2000/svg">
<g clip-path="url(#clip0_6364_2069)">
<path d="M26.475 13.5469L24.8611 13.2783C24.6552 13.2443 24.4596 13.1647 24.2884 13.0454C24.1172 12.9261 23.9748 12.7701 23.8716 12.5888L21.6427 8.68875C21.273 8.04352 20.7398 7.5072 20.0967 7.13389C19.4536 6.76057 18.7234 6.56348 17.9798 6.5625H10.1452C9.40161 6.56344 8.67146 6.76046 8.02838 7.13368C7.38529 7.50691 6.85201 8.04314 6.48234 8.68828L4.20891 12.6666C4.11435 12.8311 3.98763 12.9749 3.83631 13.0894C3.68499 13.2039 3.51216 13.2868 3.32812 13.3331L1.77469 13.7212C1.38791 13.8181 1.03234 14.0122 0.741807 14.2853C0.451273 14.5584 0.23544 14.9012 0.114844 15.2812C0.109687 15.2934 0.109219 15.308 0.105 15.3206C0.0371353 15.5391 0.0017571 15.7664 0 15.9952L0 19.2188C0.000744308 19.8401 0.247913 20.4358 0.687291 20.8752C1.12667 21.3146 1.72238 21.5618 2.34375 21.5625H4.07109C4.33621 22.1233 4.75519 22.5973 5.27926 22.9293C5.80332 23.2612 6.4109 23.4374 7.03125 23.4374C7.6516 23.4374 8.25918 23.2612 8.78324 22.9293C9.30731 22.5973 9.72629 22.1233 9.99141 21.5625H20.0086C20.2737 22.1233 20.6927 22.5973 21.2168 22.9293C21.7408 23.2612 22.3484 23.4374 22.9688 23.4374C23.5891 23.4374 24.1967 23.2612 24.7207 22.9293C25.2448 22.5973 25.6638 22.1233 25.9289 21.5625H27.6562C28.2776 21.5618 28.8733 21.3146 29.3127 20.8752C29.7521 20.4358 29.9993 19.8401 30 19.2188V17.708C30.0025 16.7087 29.6491 15.7412 29.0032 14.9787C28.3573 14.2163 27.4611 13.7087 26.475 13.5469ZM28.5441 15.9375C28.7295 16.2265 28.8682 16.5429 28.9552 16.875H28.5938C28.2219 16.8749 27.8651 16.728 27.6009 16.4662C27.4525 16.3166 27.3388 16.1361 27.2681 15.9375H28.5441ZM0.942187 15.9375H1.74328L1.50891 16.875H0.9375V15.9952C0.9375 15.9755 0.941719 15.9567 0.942187 15.9375ZM7.03125 22.5C6.5677 22.5 6.11456 22.3625 5.72913 22.105C5.3437 21.8475 5.0433 21.4814 4.86591 21.0532C4.68851 20.6249 4.6421 20.1536 4.73253 19.699C4.82297 19.2444 5.04619 18.8267 5.37397 18.499C5.70175 18.1712 6.11936 17.948 6.57401 17.8575C7.02865 17.7671 7.4999 17.8135 7.92816 17.9909C8.35643 18.1683 8.72247 18.4687 8.98001 18.8541C9.23754 19.2396 9.375 19.6927 9.375 20.1562C9.37426 20.7776 9.12709 21.3733 8.68771 21.8127C8.24833 22.2521 7.65262 22.4993 7.03125 22.5ZM22.9688 22.5C22.5052 22.5 22.0521 22.3625 21.6666 22.105C21.2812 21.8475 20.9808 21.4814 20.8034 21.0532C20.626 20.6249 20.5796 20.1536 20.67 19.699C20.7605 19.2444 20.9837 18.8267 21.3115 18.499C21.6392 18.1712 22.0569 17.948 22.5115 17.8575C22.9662 17.7671 23.4374 17.8135 23.8657 17.9909C24.2939 18.1683 24.66 18.4687 24.9175 18.8541C25.175 19.2396 25.3125 19.6927 25.3125 20.1562C25.3118 20.7776 25.0646 21.3733 24.6252 21.8127C24.1858 22.2521 23.5901 22.4993 22.9688 22.5ZM27.6562 20.625H26.2125C26.2838 20.1577 26.2532 19.6805 26.1229 19.2261C25.9927 18.7717 25.7657 18.3508 25.4577 17.9922C25.1497 17.6336 24.7678 17.3458 24.3382 17.1485C23.9086 16.9512 23.4415 16.8491 22.9688 16.8491C22.496 16.8491 22.0289 16.9512 21.5993 17.1485C21.1697 17.3458 20.7878 17.6336 20.4798 17.9922C20.1718 18.3508 19.9448 18.7717 19.8146 19.2261C19.6843 19.6805 19.6537 20.1577 19.725 20.625H10.275C10.3463 20.1577 10.3157 19.6805 10.1854 19.2261C10.0552 18.7717 9.82824 18.3508 9.5202 17.9922C9.21216 17.6336 8.83028 17.3458 8.40069 17.1485C7.97111 16.9512 7.50397 16.8491 7.03125 16.8491C6.55853 16.8491 6.09139 16.9512 5.66181 17.1485C5.23223 17.3458 4.85034 17.6336 4.5423 17.9922C4.23426 18.3508 4.00734 18.7717 3.87706 19.2261C3.74679 19.6805 3.71624 20.1577 3.7875 20.625H2.34375C1.97079 20.625 1.6131 20.4768 1.34938 20.2131C1.08566 19.9494 0.9375 19.5917 0.9375 19.2188V17.8125H1.875C1.9795 17.8125 2.081 17.7776 2.16338 17.7133C2.24576 17.649 2.30429 17.559 2.32969 17.4577L2.79844 15.5827C2.81575 15.5135 2.81708 15.4414 2.80233 15.3717C2.78757 15.302 2.75712 15.2365 2.71328 15.1804C2.66945 15.1242 2.61338 15.0788 2.54935 15.0475C2.48532 15.0162 2.415 15 2.34375 15H1.35422C1.53292 14.8206 1.75699 14.6931 2.0025 14.6311L3.55641 14.2425C3.86282 14.1651 4.15055 14.0269 4.40244 13.8361C4.65434 13.6452 4.86526 13.4056 5.02266 13.1316L7.29609 9.15328C7.58369 8.65154 7.99851 8.2345 8.49872 7.94423C8.99893 7.65397 9.56683 7.50074 10.1452 7.5H17.9798C18.5582 7.50074 19.1261 7.65397 19.6263 7.94423C20.1265 8.2345 20.5413 8.65154 20.8289 9.15328L23.0573 13.0533C23.2292 13.3557 23.4666 13.616 23.752 13.8149C24.0374 14.0139 24.3636 14.1465 24.7069 14.2031L26.3208 14.4722C26.7927 14.5503 27.2419 14.7304 27.637 15H26.7188C26.5944 15 26.4752 15.0494 26.3873 15.1373C26.2994 15.2252 26.25 15.3444 26.25 15.4688C26.2497 15.7766 26.3101 16.0815 26.4278 16.366C26.5455 16.6505 26.7181 16.909 26.9358 17.1267C27.1535 17.3444 27.412 17.517 27.6965 17.6347C27.981 17.7524 28.2859 17.8128 28.5938 17.8125H29.0625V19.2188C29.0625 19.5917 28.9143 19.9494 28.6506 20.2131C28.3869 20.4768 28.0292 20.625 27.6562 20.625Z" fill="#4A4C56"/>
<path d="M21.3084 11.0086C21.2444 10.902 21.1407 10.8252 21.02 10.7951C20.8994 10.765 20.7717 10.784 20.6651 10.848C20.5585 10.9121 20.4817 11.0158 20.4516 11.1365C20.4215 11.2571 20.4405 11.3848 20.5045 11.4914L21.2034 12.6562H15.4688V8.90625H18.157C18.3998 8.90692 18.6383 8.9701 18.8496 9.08973C19.0608 9.20935 19.2377 9.38138 19.3631 9.58922L19.6603 10.0852C19.7243 10.1918 19.8281 10.2686 19.9487 10.2987C20.0694 10.3288 20.1971 10.3097 20.3037 10.2457C20.4103 10.1817 20.4871 10.0779 20.5172 9.95727C20.5473 9.83662 20.5282 9.70895 20.4642 9.60234L20.1666 9.10641C19.9575 8.76015 19.6628 8.47357 19.3108 8.27431C18.9589 8.07504 18.5615 7.96981 18.157 7.96875H15C14.8757 7.96875 14.7565 8.01814 14.6685 8.10604C14.5806 8.19395 14.5313 8.31318 14.5313 8.4375V13.125C14.5313 13.2493 14.5806 13.3685 14.6685 13.4565C14.7565 13.5444 14.8757 13.5938 15 13.5938H22.0312C22.1142 13.5937 22.1957 13.5717 22.2674 13.5299C22.339 13.4881 22.3983 13.428 22.4392 13.3558C22.48 13.2836 22.501 13.2018 22.4999 13.1189C22.4988 13.0359 22.4757 12.9547 22.433 12.8836L21.3084 11.0086ZM13.125 7.96875H9.96797C9.5635 7.96981 9.16613 8.07504 8.81416 8.27431C8.46218 8.47357 8.16747 8.76015 7.95844 9.10641L5.69203 12.8836C5.6493 12.9547 5.62622 13.0359 5.62513 13.1189C5.62404 13.2018 5.64499 13.2836 5.68584 13.3558C5.72669 13.428 5.78598 13.4881 5.85764 13.5299C5.92931 13.5717 6.01078 13.5937 6.09375 13.5938H13.125C13.2493 13.5938 13.3685 13.5444 13.4565 13.4565C13.5444 13.3685 13.5938 13.2493 13.5938 13.125V8.4375C13.5938 8.31318 13.5444 8.19395 13.4565 8.10604C13.3685 8.01814 13.2493 7.96875 13.125 7.96875ZM12.6563 12.6562H6.92156L8.76188 9.58922C8.88732 9.38138 9.0642 9.20935 9.27545 9.08973C9.4867 8.9701 9.7252 8.90692 9.96797 8.90625H12.6563V12.6562ZM15.9375 14.0625H15C14.8757 14.0625 14.7565 14.1119 14.6685 14.1998C14.5806 14.2877 14.5313 14.4069 14.5313 14.5312C14.5313 14.6556 14.5806 14.7748 14.6685 14.8627C14.7565 14.9506 14.8757 15 15 15H15.9375C16.0618 15 16.1811 14.9506 16.269 14.8627C16.3569 14.7748 16.4063 14.6556 16.4063 14.5312C16.4063 14.4069 16.3569 14.2877 16.269 14.1998C16.1811 14.1119 16.0618 14.0625 15.9375 14.0625ZM7.03125 14.0625H6.09375C5.96943 14.0625 5.8502 14.1119 5.76229 14.1998C5.67439 14.2877 5.625 14.4069 5.625 14.5312C5.625 14.6556 5.67439 14.7748 5.76229 14.8627C5.8502 14.9506 5.96943 15 6.09375 15H7.03125C7.15557 15 7.2748 14.9506 7.36271 14.8627C7.45061 14.7748 7.5 14.6556 7.5 14.5312C7.5 14.4069 7.45061 14.2877 7.36271 14.1998C7.2748 14.1119 7.15557 14.0625 7.03125 14.0625ZM22.9688 18.75C22.6906 18.75 22.4187 18.8325 22.1875 18.987C21.9562 19.1415 21.776 19.3611 21.6695 19.6181C21.5631 19.8751 21.5353 20.1578 21.5895 20.4306C21.6438 20.7034 21.7777 20.954 21.9744 21.1506C22.171 21.3473 22.4216 21.4812 22.6944 21.5355C22.9672 21.5897 23.2499 21.5619 23.5069 21.4555C23.7639 21.349 23.9835 21.1688 24.138 20.9375C24.2925 20.7063 24.375 20.4344 24.375 20.1562C24.375 19.7833 24.2268 19.4256 23.9631 19.1619C23.6994 18.8982 23.3417 18.75 22.9688 18.75ZM22.9688 20.625C22.876 20.625 22.7854 20.5975 22.7083 20.546C22.6312 20.4945 22.5712 20.4213 22.5357 20.3356C22.5002 20.25 22.4909 20.1557 22.509 20.0648C22.5271 19.9739 22.5717 19.8903 22.6373 19.8248C22.7028 19.7592 22.7864 19.7146 22.8773 19.6965C22.9682 19.6784 23.0625 19.6877 23.1481 19.7232C23.2338 19.7587 23.307 19.8187 23.3585 19.8958C23.41 19.9729 23.4375 20.0635 23.4375 20.1562C23.4375 20.2806 23.3881 20.3998 23.3002 20.4877C23.2123 20.5756 23.0931 20.625 22.9688 20.625ZM7.03125 18.75C6.75312 18.75 6.48124 18.8325 6.24998 18.987C6.01872 19.1415 5.83848 19.3611 5.73205 19.6181C5.62561 19.8751 5.59776 20.1578 5.65202 20.4306C5.70628 20.7034 5.84021 20.954 6.03688 21.1506C6.23355 21.3473 6.48412 21.4812 6.75691 21.5355C7.02969 21.5897 7.31244 21.5619 7.5694 21.4555C7.82636 21.349 8.04598 21.1688 8.20051 20.9375C8.35503 20.7063 8.4375 20.4344 8.4375 20.1562C8.4375 19.7833 8.28934 19.4256 8.02562 19.1619C7.7619 18.8982 7.40421 18.75 7.03125 18.75ZM7.03125 20.625C6.93854 20.625 6.84791 20.5975 6.77083 20.546C6.69374 20.4945 6.63366 20.4213 6.59818 20.3356C6.5627 20.25 6.55342 20.1557 6.57151 20.0648C6.58959 19.9739 6.63424 19.8903 6.69979 19.8248C6.76535 19.7592 6.84887 19.7146 6.9398 19.6965C7.03073 19.6784 7.12498 19.6877 7.21063 19.7232C7.29629 19.7587 7.3695 19.8187 7.421 19.8958C7.47251 19.9729 7.5 20.0635 7.5 20.1562C7.5 20.2806 7.45061 20.3998 7.36271 20.4877C7.2748 20.5756 7.15557 20.625 7.03125 20.625Z" fill="#4A4C56"/>
</g>
<defs>
<clipPath id="clip0_6364_2069">
<rect width="30" height="30" fill="white"/>
</clipPath>
</defs>
</svg>
